# xmcd
#
# Track frame offsets:
# 150
# 4007
# 19415
# 26821
# 38971
# 58480
# 65300
# 82269
# 97444
# 110860
# 128795
# 144220
#
# Disc length: 2181 seconds
#
# Revision: 0
# Processed by: cddbd v1.5.2PL0 Copyright (c) Steve Scherf et al.
# Submitted via: Audion 3.0.2 (http://www.panic.com/audion/)
#
DISCID=b408830c
DTITLE=F.M. RADIO - SMALL WORLD,  BIG DREAMS MIXTAPE
DYEAR=1900
DGENRE=
TTITLE0=INTRO FEAT QUEENIE
TTITLE1=YOU'RE A STAR
TTITLE2=AIRPLANE PT.2 REMIX
TTITLE3=UP ALL NIGHT REMIX FEAT DRAKE
TTITLE4=IN STEREO
TTITLE5=KICK, PUSH REMIX
TTITLE6=ALL NIGHT LONG FEAT CHANEL JOHNAE'
TTITLE7=BANG, BANG
TTITLE8=A STAR IS BORN REMIX FEAT PHANTAZM AND BOX
TTITLE9=LOYALTY REMIX
TTITLE10=YOU'RE A STAR (CLEAN RADIO EDIT)
TTITLE11=IN STEREO (CLEAN RADIO EDIT)
EXTD=
EXTT0=
EXTT1=
EXTT2=
EXTT3=
EXTT4=
EXTT5=
EXTT6=
EXTT7=
EXTT8=
EXTT9=
EXTT10=
EXTT11=
PLAYORDER=
